<?xml version="1.0" encoding="UTF-8" standalone="no"?>
<svg width="9px" height="35px" viewBox="0 0 9 35" version="1.1" xmlns="http://www.w3.org/2000/svg" xmlns:xlink="http://www.w3.org/1999/xlink">
    <!-- Generator: Sketch 3.6.1 (26313) - http://www.bohemiancoding.com/sketch -->
    <title>{</title>
    <desc>Created with Sketch.</desc>
    <defs></defs>
    <g id="Page-1" stroke="none" stroke-width="1" fill="none" fill-rule="evenodd">
        <path d="M7.40968807,0.359669725 C6.7835932,0.359669725 6.20746135,0.47289795 5.68127523,0.699357798 C5.15508911,0.925817646 4.69551573,1.24885111 4.30254128,1.66846789 C3.90956684,2.08808467 3.60318459,2.5909512 3.38338532,3.17708257 C3.16358606,3.76321394 3.05368807,4.42260184 3.05368807,5.15526606 C3.05368807,5.9145726 3.12362315,6.66387704 3.26349541,7.40320183 C3.40336767,8.14252663 3.55988904,8.88184034 3.73306422,9.62116514 C3.9062394,10.3604899 4.06276077,11.0998036 4.20263303,11.8391284 C4.34250529,12.5784532 4.41244037,13.3210972 4.41244037,14.0670826 C4.41244037,14.5732869 4.32252383,15.0228696 4.14268807,15.415844 C3.96285231,15.8088185 3.72973538,16.1451729 3.44333028,16.4249174 C3.15692517,16.7046619 2.84055219,16.9277882 2.49420183,17.0943028 C2.14785148,17.2608173 1.8081668,17.3707153 1.47513761,17.424 C1.8081668,17.4772847 2.14785148,17.5871827 2.49420183,17.7536972 C2.84055219,17.9202118 3.15692517,18.1433381 3.44333028,18.4230826 C3.72973538,18.7028271 3.96285231,19.0391815 4.14268807,19.432156 C4.32252383,19.8251304 4.41244037,20.2747131 4.41244037,20.7809174 C4.41244037,21.5269028 4.34250529,22.2695468 4.20263303,23.0088716 C4.06276077,23.7481964 3.9062394,24.4875101 3.73306422,25.2268349 C3.55988904,25.9661597 3.40336767,26.7054734 3.26349541,27.4447982 C3.12362315,28.184123 3.05368807,28.9334274 3.05368807,29.6927339 C3.05368807,30.4253982 3.16358606,31.0847861 3.38338532,31.6709174 C3.60318459,32.2570488 3.90956684,32.7599153 4.30254128,33.1795321 C4.69551573,33.5991489 5.15508911,33.9221824 5.68127523,34.1486422 C6.20746135,34.375102 6.7835932,34.4883303 7.40968807,34.4883303 L8.28888073,34.4883303 C8.44873474,34.4883303 8.52866055,34.5549351 8.52866055,34.6881468 L8.52866055,34.848 L7.40968807,34.848 C6.70366619,34.848 6.05426902,34.7147903 5.46147706,34.448367 C4.86868511,34.1819436 4.36248834,33.815617 3.94287156,33.3493761 C3.52325478,32.8831353 3.19689107,32.3369756 2.96377064,31.7108807 C2.73065021,31.0847859 2.61409174,30.412077 2.61409174,29.6927339 C2.61409174,28.9067851 2.68402682,28.1441597 2.82389908,27.4048349 C2.96377134,26.6655101 3.12029271,25.9361871 3.29346789,25.216844 C3.46664307,24.497501 3.62316444,23.7748385 3.7630367,23.0488349 C3.90290896,22.3228312 3.97284404,21.5668663 3.97284404,20.7809174 C3.97284404,20.3279977 3.88625775,19.9083873 3.71308257,19.5220734 C3.53990739,19.1357595 3.30012997,18.8027353 2.99374312,18.5229908 C2.68735627,18.2432463 2.3243599,18.0234503 1.90474312,17.8635963 C1.48512634,17.7037423 1.0288832,17.6238165 0.536,17.6238165 L0.536,17.2241835 C1.0288832,17.2241835 1.48512634,17.1475879 1.90474312,16.9943945 C2.3243599,16.8412011 2.68735627,16.6247353 2.99374312,16.3449908 C3.30012997,16.0652463 3.53990739,15.7322221 3.71308257,15.3459083 C3.88625775,14.9595944 3.97284404,14.5333234 3.97284404,14.0670826 C3.97284404,13.2944549 3.90290896,12.5418202 3.7630367,11.809156 C3.62316444,11.0764917 3.46664307,10.350499 3.29346789,9.63115596 C3.12029271,8.91181292 2.96377134,8.18248994 2.82389908,7.44316514 C2.68402682,6.70384034 2.61409174,5.94121494 2.61409174,5.15526606 C2.61409174,4.43592301 2.73065021,3.76321414 2.96377064,3.13711927 C3.19689107,2.51102439 3.52325478,1.96486472 3.94287156,1.49862385 C4.36248834,1.03238299 4.86868511,0.666056378 5.46147706,0.399633028 C6.05426902,0.133209677 6.70366619,0 7.40968807,0 L8.52866055,0 L8.52866055,0.159853211 C8.52866055,0.293064886 8.44873474,0.359669725 8.28888073,0.359669725 L7.40968807,0.359669725 Z" id="{" fill="#000000"></path>
    </g>
</svg>